<?xml version="1.0" encoding="UTF-8"?>
<svg version="1.1" xmlns="http://www.w3.org/2000/svg" width="700" height="603">
<path d="M0 0 C3.87444171 -0.67381595 5.93264345 -0.67840458 9.3046875 1.46484375 C11.92851929 3.58151317 14.46691394 5.77564542 17 8 C18.76609531 9.44331712 20.53701926 10.88074406 22.3125 12.3125 C27.34258616 16.43702916 32.31496327 20.62591221 37.2734375 24.8359375 C37.83023193 25.2896875 38.38702637 25.7434375 38.96069336 26.2109375 C41 28 41 28 43.63500977 30.7578125 C50.46977031 37.63406028 55.9256181 40.27118502 65.68109131 40.43069458 C67.34327516 40.41431768 69.00537434 40.37863161 70.66674805 40.32421875 C73.19941964 40.24964905 75.71497188 40.28303592 78.24804688 40.328125 C86.03875111 40.31649623 91.80639497 40.12898982 97.84765625 34.69140625 C99.25979317 33.15286166 100.64849974 31.59207324 102 30 C103.73479114 28.54418203 105.48127383 27.10189527 107.25 25.6875 C110.94217215 22.70355833 114.56817723 19.66202602 118.15112305 16.54907227 C123.17296482 12.19433863 128.23418047 7.88663903 133.4375 3.75 C134.34371094 3.02296875 135.24992188 2.2959375 136.18359375 1.546875 C139.65419244 -0.35930681 142.0995803 -0.28999403 146 0 C149.33495329 5.61983382 150.35123424 11.50634718 151.5625 17.875 C151.77938477 18.99108643 151.99626953 20.10717285 152.21972656 21.25708008 C153.84703704 29.80292944 155.24286461 38.33036237 156 47 C156.09047607 47.95583984 156.18095215 48.91167969 156.27416992 49.89648438 C156.85026208 56.71266837 157.05370676 63.42233394 156.95703125 70.2578125 C156.94684967 71.06106461 156.93666809 71.86431671 156.92617798 72.69190979 C156.8809417 76.00445005 156.83166038 79.31647921 156.75317383 82.62841797 C156.39564013 98.56911264 158.58151971 110.98928261 169.92578125 123.046875 C174.8516295 127.68515019 180.3555701 131.33117803 186.00024414 135.0144043 C199.34085068 143.75048277 211.74788422 153.81565477 224 164 C224.66628418 164.54301758 225.33256836 165.08603516 226.01904297 165.64550781 C226.66115723 166.17756836 227.30327148 166.70962891 227.96484375 167.2578125 C228.54741943 167.73621582 229.12999512 168.21461914 229.73022461 168.70751953 C231 170 231 170 231 172 C231.89912109 172.38671875 231.89912109 172.38671875 232.81640625 172.78125 C244.02859718 179.03921703 248.83806942 198.45550252 253.4375 209.6875 C253.78493256 210.53502838 254.13236511 211.38255676 254.49032593 212.25576782 C327.83311753 391.71393573 327.83311753 391.71393573 304.56640625 447.89453125 C304.04949219 448.91933594 303.53257812 449.94414062 303 451 C302.65565918 451.68497559 302.31131836 452.36995117 301.95654297 453.07568359 C263.34340472 528.75103901 263.34340472 528.75103901 233.95338058 539.06964397 C229.36013854 540.33002648 224.85619395 540.28045079 220.12091064 540.26069641 C219.14263833 540.26452196 218.16436601 540.26834751 217.15644908 540.27228898 C213.88712191 540.28258572 210.61797146 540.27863308 207.34863281 540.2746582 C205.0009444 540.27900657 202.6532574 540.28419014 200.30557251 540.29014587 C193.93353484 540.30353521 187.56155648 540.30411449 181.18950748 540.30158257 C175.19288657 540.30037716 169.19627395 540.30659247 163.19965634 540.31201603 C150.5940478 540.3228855 137.98846602 540.3207322 125.38285598 540.31463119 C113.86734827 540.30946554 102.35192524 540.32070921 90.83643427 540.33972941 C78.99701163 540.35913383 67.15762898 540.36735906 55.31819034 540.36360615 C48.67746725 540.36169767 42.03680713 540.36441355 35.39609528 540.37832069 C29.1481654 540.39091547 22.90040461 540.38893912 16.65247726 540.37590981 C14.3640347 540.3735479 12.07558018 540.3762648 9.78715134 540.38453293 C6.65358104 540.39503489 3.52057449 540.38687172 0.38702393 540.3742218 C-0.50998757 540.38159609 -1.40699907 540.38897037 -2.33119273 540.39656812 C-19.810858 540.24899546 -33.10692865 532.04864931 -45 520 C-46.0209375 518.97712891 -46.0209375 518.97712891 -47.0625 517.93359375 C-66.0374041 497.64569405 -69.22859889 468.16139751 -69.25 441.6875 C-69.25067474 440.93499969 -69.25134949 440.18249939 -69.25204468 439.40719604 C-69.2345207 427.06392559 -68.59280865 415.10657898 -66 403 C-65.83371094 402.22269531 -65.66742188 401.44539063 -65.49609375 400.64453125 C-59.48542202 373.70781719 -48.31863887 349.22685402 -32.29785156 326.82470703 C-19.41555932 308.71292144 -7.87988265 286.98990439 -11.4609375 264.046875 C-15.50718148 245.8625785 -26.51959641 232.50512566 -41.375 221.8125 C-45.06888227 219.10267384 -47.05401197 216.49396844 -48.6875 212.1875 C-49.62381688 205.63328183 -49.34510112 200.82695034 -46 195 C-41.30154998 189.95351664 -36.71296041 187.01049262 -29.75 186.625 C-19.37612326 186.95025356 -12.52496335 193.52397094 -5 200 C-4.154375 200.65226563 -3.30875 201.30453125 -2.4375 201.9765625 C14.3501287 215.91244658 25.88110065 240.32319409 28.68359375 261.53125 C31.88764 296.65709032 16.97733437 328.22522297 -3.5625 355.875 C-25.71635495 387.12872691 -34.06883122 428.45118123 -27.875 466.125 C-25.73901268 477.50541282 -21.54072722 489.33329966 -12.01953125 496.48828125 C-6.74216243 500.00322671 -2.29219441 501.12995399 4.06567383 501.11352539 C5.53663261 501.11341209 5.53663261 501.11341209 7.03730774 501.11329651 C8.0833165 501.10813522 9.12932526 501.10297394 10.20703125 501.09765625 C11.28756271 501.0962413 12.36809418 501.09482635 13.48136902 501.09336853 C16.92510776 501.0877808 20.36878098 501.0752305 23.8125 501.0625 C26.15038968 501.05748342 28.48828039 501.05292079 30.82617188 501.04882812 C36.55080353 501.03781538 42.27539708 501.02108941 48 501 C47.68329849 500.29964127 47.36659698 499.59928253 47.04029846 498.87770081 C10.1282251 417.14835283 10.1282251 417.14835283 22.7578125 382.7578125 C30.82233498 361.72339313 40.34083952 341.35559692 52.87890625 322.6015625 C53.30517303 321.96206665 53.73143982 321.3225708 54.17062378 320.66369629 C56.28240257 317.50444304 58.41570702 314.36374328 60.58984375 311.24707031 C75.67323974 289.28028134 70.22863986 260.83890397 65.8046875 235.95629883 C62.66065207 219.34837765 58.16800741 203.04427103 52.875 187 C52.56272461 186.0519751 52.25044922 185.1039502 51.92871094 184.12719727 C50.99996958 181.39786949 50.01662035 178.69775732 49 176 C48.64365479 175.02039307 48.28730957 174.04078613 47.92016602 173.03149414 C45.67576455 167.42305738 43.86576627 163.98320395 38.32836914 161.34155273 C37.62188232 161.04321533 36.91539551 160.74487793 36.1875 160.4375 C34.66671219 159.71368493 33.14853775 158.98435741 31.6328125 158.25 C30.86356445 157.88519531 30.09431641 157.52039063 29.30175781 157.14453125 C19.12456237 152.08399962 9.56668448 145.43221692 1 138 C0.14792969 137.26910156 -0.70414062 136.53820312 -1.58203125 135.78515625 C-4.10501261 133.57234651 -6.55511792 131.29843324 -9 129 C-9.74378906 128.36449219 -10.48757812 127.72898437 -11.25390625 127.07421875 C-14.24313852 124.24878003 -15.93775171 122.42970277 -16.12109375 118.21875 C-15.25238835 112.14563837 -13.28546888 106.60724575 -10.70703125 101.05859375 C-9.82272127 97.23309807 -10.26268216 94.07970356 -10.69604492 90.20092773 C-11.27663062 84.08682402 -11.24462176 77.9498959 -11.25 71.8125 C-11.25067474 71.11302246 -11.25134949 70.41354492 -11.25204468 69.69287109 C-11.21799333 47.27372155 -9.79249418 20.5243846 0 0 Z M22 90 C19.27866156 94.08200766 19.50463222 97.21410801 20 102 C21.76431733 108.12321896 24.8425669 111.50984053 30 115 C35.17610672 117.64556565 40.46730114 117.49578341 46 116 C49.35933053 114.06467374 52.26122592 111.73877408 55 109 C55.83285799 103.09619656 55.64548936 98.19016385 52.4375 93.0625 C48.71610492 88.16777095 44.98627098 85.88952753 39.0625 84.125 C32.37309008 83.85196286 27.27500254 85.85535515 22 90 Z M93 93 C90.36234073 97.53319746 89.6296601 101.94255612 90.5625 107.125 C92.87754173 111.75508346 96.22264456 114.13107067 100.8125 116.375 C106.85485869 117.55977621 111.94833281 116.90913283 117.3125 113.8125 C121.39352997 110.99967855 123.94911748 107.71477985 125.75 103.0625 C126.33607419 98.22738793 126.61868502 94.21523814 124 90 C119.67608445 86.15306314 114.9150019 84.19683973 109.16015625 83.87109375 C102.64063359 84.26014302 97.30767735 88.35134555 93 93 Z " fill="#000000" transform="translate(231,30)"/>
<path d="M0 0 C2.9259963 1.49868103 3.90285593 2.49584692 5.5625 5.3125 C5.99609375 8.37109375 5.99609375 8.37109375 6 11.75 C6.01933594 12.86246094 6.03867187 13.97492188 6.05859375 15.12109375 C5.46522735 18.93826186 4.22576659 20.56973291 1.5625 23.3125 C-0.375 24.375 -0.375 24.375 -2.4375 24.3125 C-5.57615107 22.44425531 -7.14645418 20.88136229 -8.8125 17.625 C-9.88227392 11.95519822 -9.66910388 7.21949956 -6.5 2.3125 C-3.18796555 -0.89916977 -3.18796555 -0.89916977 0 0 Z " fill="#000000" transform="translate(272.4375,118.6875)"/>
<path d="M0 0 C3.30126084 0.52520059 4.79973272 1.72487965 6.7890625 4.3984375 C8.78239069 8.62818269 8.70824291 12.92658779 7.75 17.4375 C6.09407094 20.20533532 4.1748561 22.32296774 1.75 24.4375 C-1.63303514 23.49776802 -3.18446957 22.5101148 -5.5625 19.875 C-7.68923101 15.54277017 -8.12230617 12.18013546 -7.25 7.4375 C-5.66172047 4.01878174 -3.83441789 0.74558126 0 0 Z " fill="#000000" transform="translate(336.25,118.5625)"/>
</svg>
